<svg width="56" height="55" viewBox="0 0 56 55" fill="none" xmlns="http://www.w3.org/2000/svg">
<g clip-path="url(#clip0_965_120)" filter="url(#filter0_d_965_120)">
<g clip-path="url(#clip1_965_120)">
<path d="M27.8406 22.8025C32.1448 22.8025 35.4925 19.3071 35.4925 15.0173C35.4925 10.7276 31.9854 7.39111 27.6812 7.39111C23.377 7.39111 20.0293 10.8865 20.0293 15.0173C20.0293 19.3071 23.5364 22.8025 27.8406 22.8025ZM27.6812 10.5687C27.8406 10.5687 27.8406 10.5687 27.6812 10.5687C30.2318 10.5687 32.3042 12.6342 32.3042 15.1762C32.3042 17.7183 30.2318 19.6249 27.6812 19.6249C25.1306 19.6249 23.2176 17.5594 23.2176 15.1762C23.2176 12.6342 25.29 10.5687 27.6812 10.5687Z" fill="#0D5C63"/>
<path d="M51.4335 21.8487C48.4046 19.1477 44.4193 17.7178 40.2745 17.8767H38.9992C38.6804 19.1477 38.2021 20.2599 37.5645 21.2132C38.5209 21.0543 39.318 21.0543 40.2745 21.0543C43.3034 20.8954 46.3323 21.8487 48.7235 23.5964V35.0357H51.9118V22.3253L51.4335 21.8487Z" fill="#0D5C63"/>
<path d="M36.6088 7.70826C37.4058 5.8017 39.6376 4.84842 41.71 5.64282C43.623 6.43722 44.5795 8.66154 43.7824 10.727C43.1448 12.1569 41.71 13.1102 40.2753 13.1102C39.9565 13.1102 39.4782 13.1102 39.1594 12.9513C39.3188 13.7457 39.3188 14.5401 39.3188 15.1756V16.1289C39.6376 16.1289 39.9565 16.2878 40.2753 16.2878C44.2607 16.2878 47.449 13.1102 47.449 9.29706C47.449 5.32506 44.2607 2.14746 40.4347 2.14746C37.8841 2.14746 35.6523 3.4185 34.377 5.64282C35.174 6.11946 35.9711 6.75498 36.6088 7.70826Z" fill="#0D5C63"/>
<path d="M18.4352 21.3724C17.7975 20.4191 17.3193 19.3069 17.0005 18.0359H15.7252C11.5804 17.877 7.59501 19.3069 4.56613 21.849L4.08789 22.3257V35.0361H7.27618V23.5967C9.82681 21.849 12.6963 20.8957 15.7252 21.0546C16.6816 21.0546 17.6381 21.2135 18.4352 21.3724Z" fill="#0D5C63"/>
<path d="M15.7246 16.1295C16.0435 16.1295 16.3623 16.1295 16.6811 15.9706V15.0174C16.6811 14.223 16.6811 13.4286 16.8405 12.793C16.5217 12.9519 16.0435 12.9519 15.7246 12.9519C13.6522 12.9519 11.8987 11.2042 11.8987 9.1388C11.8987 7.07336 13.6522 5.32568 15.7246 5.32568C17.3188 5.32568 18.7535 6.27896 19.3912 7.70888C20.0288 6.91448 20.9853 6.12008 21.7824 5.48456C19.71 2.14809 15.4058 1.03593 12.0581 3.10136C8.7104 5.1668 7.59449 9.45656 9.66688 12.793C10.9422 14.8585 13.174 16.1295 15.7246 16.1295Z" fill="#0D5C63"/>
<path d="M40.9128 31.3817L40.594 30.9051C37.4057 27.4097 32.9421 25.3443 28.1596 25.5032C23.3772 25.3443 18.7542 27.4097 15.5659 30.9051L15.2471 31.3817V43.4566C15.2471 44.8865 16.363 46.1576 17.9571 46.1576H38.3622C39.7969 46.1576 41.0722 44.8865 41.0722 43.4566V31.3817H40.9128ZM37.7245 42.98H18.4354V32.4939C20.986 29.9518 24.4931 28.6808 28.1596 28.6808C31.6668 28.5219 35.1739 29.9518 37.7245 32.4939V42.98Z" fill="#0D5C63"/>
</g>
</g>
<defs>
<filter id="filter0_d_965_120" x="-0.5" y="0" width="56" height="56" filterUnits="userSpaceOnUse" color-interpolation-filters="sRGB">
<feFlood flood-opacity="0" result="BackgroundImageFix"/>
<feColorMatrix in="SourceAlpha" type="matrix" values="0 0 0 0 0 0 0 0 0 0 0 0 0 0 0 0 0 0 127 0" result="hardAlpha"/>
<feOffset dy="4"/>
<feGaussianBlur stdDeviation="2"/>
<feComposite in2="hardAlpha" operator="out"/>
<feColorMatrix type="matrix" values="0 0 0 0 0 0 0 0 0 0 0 0 0 0 0 0 0 0 0.25 0"/>
<feBlend mode="normal" in2="BackgroundImageFix" result="effect1_dropShadow_965_120"/>
<feBlend mode="normal" in="SourceGraphic" in2="effect1_dropShadow_965_120" result="shape"/>
</filter>
<clipPath id="clip0_965_120">
<rect width="48" height="48" fill="white" transform="translate(3.5)"/>
</clipPath>
<clipPath id="clip1_965_120">
<rect width="48" height="44.2105" fill="white" transform="translate(4 2)"/>
</clipPath>
</defs>
</svg>
